<?xml version="1.0" encoding="UTF-8" standalone="no"?>
<!DOCTYPE svg PUBLIC "-//W3C//DTD SVG 1.1//EN"
 "http://www.w3.org/Graphics/SVG/1.1/DTD/svg11.dtd">
<!-- Generated by graphviz version 2.47.3 (20210619.1520)
 -->
<!-- Title: dependencies Pages: 1 -->
<svg width="318pt" height="247pt"
 viewBox="0.00 0.00 318.00 246.80" xmlns="http://www.w3.org/2000/svg" xmlns:xlink="http://www.w3.org/1999/xlink">
<g id="graph0" class="graph" transform="scale(1 1) rotate(0) translate(4 242.8)">
<title>dependencies</title>
<polygon fill="white" stroke="transparent" points="-4,4 -4,-242.8 314,-242.8 314,4 -4,4"/>
<text text-anchor="middle" x="155" y="-8.2" font-family="sans-serif" font-size="14.00">dependencies</text>
<g id="clust1" class="cluster">
<title>cluster_ConfigurationSummaryModule</title>
<polygon fill="none" stroke="black" stroke-dasharray="1,5" points="8,-32.8 8,-230.8 302,-230.8 302,-32.8 8,-32.8"/>
</g>
<g id="clust2" class="cluster">
<title>cluster_ConfigurationSummaryModule_declarations</title>
<polygon fill="none" stroke="black" points="18,-40.8 18,-92.8 292,-92.8 292,-40.8 18,-40.8"/>
</g>
<g id="clust5" class="cluster">
<title>cluster_ConfigurationSummaryModule_exports</title>
<polygon fill="none" stroke="black" points="16,-170.8 16,-222.8 294,-222.8 294,-170.8 16,-170.8"/>
</g>
<!-- ProductConfigurationSummaryComponent -->
<g id="node1" class="node">
<title>ProductConfigurationSummaryComponent</title>
<polygon fill="#ffffb3" stroke="black" points="283.86,-84.8 26.14,-84.8 26.14,-48.8 283.86,-48.8 283.86,-84.8"/>
<text text-anchor="middle" x="155" y="-62.6" font-family="Times,serif" font-size="14.00">ProductConfigurationSummaryComponent</text>
</g>
<!-- ConfigurationSummaryModule -->
<g id="node2" class="node">
<title>ConfigurationSummaryModule</title>
<polygon fill="#8dd3c7" stroke="black" points="251.03,-149.8 248.03,-153.8 227.03,-153.8 224.03,-149.8 58.97,-149.8 58.97,-113.8 251.03,-113.8 251.03,-149.8"/>
<text text-anchor="middle" x="155" y="-127.6" font-family="Times,serif" font-size="14.00">ConfigurationSummaryModule</text>
</g>
<!-- ProductConfigurationSummaryComponent&#45;&gt;ConfigurationSummaryModule -->
<g id="edge1" class="edge">
<title>ProductConfigurationSummaryComponent&#45;&gt;ConfigurationSummaryModule</title>
<path fill="none" stroke="black" d="M155,-84.91C155,-84.91 155,-103.79 155,-103.79"/>
<polygon fill="black" stroke="black" points="151.5,-103.79 155,-113.79 158.5,-103.79 151.5,-103.79"/>
</g>
<!-- ProductConfigurationSummaryComponent  -->
<g id="node3" class="node">
<title>ProductConfigurationSummaryComponent </title>
<polygon fill="#fb8072" stroke="black" points="285.86,-214.8 24.14,-214.8 24.14,-178.8 285.86,-178.8 285.86,-214.8"/>
<text text-anchor="middle" x="155" y="-192.6" font-family="Times,serif" font-size="14.00">ProductConfigurationSummaryComponent </text>
</g>
<!-- ConfigurationSummaryModule&#45;&gt;ProductConfigurationSummaryComponent  -->
<g id="edge2" class="edge">
<title>ConfigurationSummaryModule&#45;&gt;ProductConfigurationSummaryComponent </title>
<path fill="none" stroke="black" stroke-dasharray="5,2" d="M155,-149.91C155,-149.91 155,-168.79 155,-168.79"/>
<polygon fill="black" stroke="black" points="151.5,-168.79 155,-178.79 158.5,-168.79 151.5,-168.79"/>
</g>
</g>
</svg>
