<?xml version="1.0" encoding="UTF-8" standalone="no"?>
<!DOCTYPE svg PUBLIC "-//W3C//DTD SVG 1.1//EN"
 "http://www.w3.org/Graphics/SVG/1.1/DTD/svg11.dtd">
<!-- Generated by graphviz version 2.47.3 (20210619.1520)
 -->
<!-- Title: dependencies Pages: 1 -->
<svg width="740pt" height="247pt"
 viewBox="0.00 0.00 740.00 246.80" xmlns="http://www.w3.org/2000/svg" xmlns:xlink="http://www.w3.org/1999/xlink">
<g id="graph0" class="graph" transform="scale(1 1) rotate(0) translate(4 242.8)">
<title>dependencies</title>
<polygon fill="white" stroke="transparent" points="-4,4 -4,-242.8 736,-242.8 736,4 -4,4"/>
<text text-anchor="middle" x="366" y="-8.2" font-family="sans-serif" font-size="14.00">dependencies</text>
<g id="clust1" class="cluster">
<title>cluster_ConstraintRuleModule</title>
<polygon fill="none" stroke="black" stroke-dasharray="1,5" points="8,-32.8 8,-230.8 724,-230.8 724,-32.8 8,-32.8"/>
</g>
<g id="clust6" class="cluster">
<title>cluster_ConstraintRuleModule_imports</title>
<polygon fill="none" stroke="black" points="609,-40.8 609,-92.8 713,-92.8 713,-40.8 609,-40.8"/>
</g>
<g id="clust7" class="cluster">
<title>cluster_ConstraintRuleModule_exports</title>
<polygon fill="none" stroke="black" points="16,-170.8 16,-222.8 716,-222.8 716,-170.8 16,-170.8"/>
</g>
<g id="clust2" class="cluster">
<title>cluster_ConstraintRuleModule_declarations</title>
<polygon fill="none" stroke="black" points="21,-40.8 21,-92.8 601,-92.8 601,-40.8 21,-40.8"/>
</g>
<!-- CRIconComponent -->
<g id="node1" class="node">
<title>CRIconComponent</title>
<polygon fill="#ffffb3" stroke="black" points="593.38,-84.8 468.62,-84.8 468.62,-48.8 593.38,-48.8 593.38,-84.8"/>
<text text-anchor="middle" x="531" y="-62.6" font-family="Times,serif" font-size="14.00">CRIconComponent</text>
</g>
<!-- ConstraintRuleModule -->
<g id="node4" class="node">
<title>ConstraintRuleModule</title>
<polygon fill="#8dd3c7" stroke="black" points="427.32,-149.8 424.32,-153.8 403.32,-153.8 400.32,-149.8 282.68,-149.8 282.68,-113.8 427.32,-113.8 427.32,-149.8"/>
<text text-anchor="middle" x="355" y="-127.6" font-family="Times,serif" font-size="14.00">ConstraintRuleModule</text>
</g>
<!-- CRIconComponent&#45;&gt;ConstraintRuleModule -->
<g id="edge1" class="edge">
<title>CRIconComponent&#45;&gt;ConstraintRuleModule</title>
<path fill="none" stroke="black" d="M552.23,-84.81C552.23,-100.85 552.23,-121.8 552.23,-121.8 552.23,-121.8 437.32,-121.8 437.32,-121.8"/>
<polygon fill="black" stroke="black" points="437.32,-118.3 427.32,-121.8 437.32,-125.3 437.32,-118.3"/>
</g>
<!-- ConstraintRuleAlertComponent -->
<g id="node2" class="node">
<title>ConstraintRuleAlertComponent</title>
<polygon fill="#ffffb3" stroke="black" points="450.37,-84.8 255.63,-84.8 255.63,-48.8 450.37,-48.8 450.37,-84.8"/>
<text text-anchor="middle" x="353" y="-62.6" font-family="Times,serif" font-size="14.00">ConstraintRuleAlertComponent</text>
</g>
<!-- ConstraintRuleAlertComponent&#45;&gt;ConstraintRuleModule -->
<g id="edge2" class="edge">
<title>ConstraintRuleAlertComponent&#45;&gt;ConstraintRuleModule</title>
<path fill="none" stroke="black" d="M355,-84.91C355,-84.91 355,-103.79 355,-103.79"/>
<polygon fill="black" stroke="black" points="351.5,-103.79 355,-113.79 358.5,-103.79 351.5,-103.79"/>
</g>
<!-- ConstraintRuleSidebarComponent -->
<g id="node3" class="node">
<title>ConstraintRuleSidebarComponent</title>
<polygon fill="#ffffb3" stroke="black" points="237.37,-84.8 28.63,-84.8 28.63,-48.8 237.37,-48.8 237.37,-84.8"/>
<text text-anchor="middle" x="133" y="-62.6" font-family="Times,serif" font-size="14.00">ConstraintRuleSidebarComponent</text>
</g>
<!-- ConstraintRuleSidebarComponent&#45;&gt;ConstraintRuleModule -->
<g id="edge3" class="edge">
<title>ConstraintRuleSidebarComponent&#45;&gt;ConstraintRuleModule</title>
<path fill="none" stroke="black" d="M166.98,-84.82C166.98,-102.17 166.98,-125.8 166.98,-125.8 166.98,-125.8 272.57,-125.8 272.57,-125.8"/>
<polygon fill="black" stroke="black" points="272.57,-129.3 282.57,-125.8 272.57,-122.3 272.57,-129.3"/>
</g>
<!-- AlertModule  -->
<g id="node6" class="node">
<title>AlertModule </title>
<polygon fill="#fb8072" stroke="black" points="707.81,-214.8 616.19,-214.8 616.19,-178.8 707.81,-178.8 707.81,-214.8"/>
<text text-anchor="middle" x="662" y="-192.6" font-family="Times,serif" font-size="14.00">AlertModule </text>
</g>
<!-- ConstraintRuleModule&#45;&gt;AlertModule  -->
<g id="edge5" class="edge">
<title>ConstraintRuleModule&#45;&gt;AlertModule </title>
<path fill="none" stroke="black" stroke-dasharray="5,2" d="M427.38,-135.8C513.64,-135.8 646.28,-135.8 646.28,-135.8 646.28,-135.8 646.28,-168.5 646.28,-168.5"/>
<polygon fill="black" stroke="black" points="642.78,-168.5 646.28,-178.5 649.78,-168.5 642.78,-168.5"/>
</g>
<!-- CRIconComponent  -->
<g id="node7" class="node">
<title>CRIconComponent </title>
<polygon fill="#fb8072" stroke="black" points="598.38,-214.8 469.62,-214.8 469.62,-178.8 598.38,-178.8 598.38,-214.8"/>
<text text-anchor="middle" x="534" y="-192.6" font-family="Times,serif" font-size="14.00">CRIconComponent </text>
</g>
<!-- ConstraintRuleModule&#45;&gt;CRIconComponent  -->
<g id="edge6" class="edge">
<title>ConstraintRuleModule&#45;&gt;CRIconComponent </title>
<path fill="none" stroke="black" stroke-dasharray="5,2" d="M427.53,-142.8C468.27,-142.8 511.02,-142.8 511.02,-142.8 511.02,-142.8 511.02,-168.52 511.02,-168.52"/>
<polygon fill="black" stroke="black" points="507.52,-168.52 511.02,-178.52 514.52,-168.52 507.52,-168.52"/>
</g>
<!-- ConstraintRuleAlertComponent  -->
<g id="node8" class="node">
<title>ConstraintRuleAlertComponent </title>
<polygon fill="#fb8072" stroke="black" points="452.37,-214.8 253.63,-214.8 253.63,-178.8 452.37,-178.8 452.37,-214.8"/>
<text text-anchor="middle" x="353" y="-192.6" font-family="Times,serif" font-size="14.00">ConstraintRuleAlertComponent </text>
</g>
<!-- ConstraintRuleModule&#45;&gt;ConstraintRuleAlertComponent  -->
<g id="edge7" class="edge">
<title>ConstraintRuleModule&#45;&gt;ConstraintRuleAlertComponent </title>
<path fill="none" stroke="black" stroke-dasharray="5,2" d="M355,-149.91C355,-149.91 355,-168.79 355,-168.79"/>
<polygon fill="black" stroke="black" points="351.5,-168.79 355,-178.79 358.5,-168.79 351.5,-168.79"/>
</g>
<!-- ConstraintRuleSidebarComponent  -->
<g id="node9" class="node">
<title>ConstraintRuleSidebarComponent </title>
<polygon fill="#fb8072" stroke="black" points="236.37,-214.8 23.63,-214.8 23.63,-178.8 236.37,-178.8 236.37,-214.8"/>
<text text-anchor="middle" x="130" y="-192.6" font-family="Times,serif" font-size="14.00">ConstraintRuleSidebarComponent </text>
</g>
<!-- ConstraintRuleModule&#45;&gt;ConstraintRuleSidebarComponent  -->
<g id="edge8" class="edge">
<title>ConstraintRuleModule&#45;&gt;ConstraintRuleSidebarComponent </title>
<path fill="none" stroke="black" stroke-dasharray="5,2" d="M282.66,-137.8C206.58,-137.8 97.77,-137.8 97.77,-137.8 97.77,-137.8 97.77,-168.78 97.77,-168.78"/>
<polygon fill="black" stroke="black" points="94.27,-168.78 97.77,-178.78 101.27,-168.78 94.27,-168.78"/>
</g>
<!-- AlertModule -->
<g id="node5" class="node">
<title>AlertModule</title>
<polygon fill="#8dd3c7" stroke="black" points="705.31,-84.8 702.31,-88.8 681.31,-88.8 678.31,-84.8 616.69,-84.8 616.69,-48.8 705.31,-48.8 705.31,-84.8"/>
<text text-anchor="middle" x="661" y="-62.6" font-family="Times,serif" font-size="14.00">AlertModule</text>
</g>
<!-- AlertModule&#45;&gt;ConstraintRuleModule -->
<g id="edge4" class="edge">
<title>AlertModule&#45;&gt;ConstraintRuleModule</title>
<path fill="none" stroke="black" d="M675.72,-85.07C675.72,-103.36 675.72,-128.8 675.72,-128.8 675.72,-128.8 437.38,-128.8 437.38,-128.8"/>
<polygon fill="black" stroke="black" points="437.38,-125.3 427.38,-128.8 437.38,-132.3 437.38,-125.3"/>
</g>
</g>
</svg>
