<?xml version="1.0" encoding="UTF-8" standalone="no"?>
<!DOCTYPE svg PUBLIC "-//W3C//DTD SVG 1.1//EN"
 "http://www.w3.org/Graphics/SVG/1.1/DTD/svg11.dtd">
<!-- Generated by graphviz version 2.47.3 (20210619.1520)
 -->
<!-- Title: dependencies Pages: 1 -->
<svg width="386pt" height="247pt"
 viewBox="0.00 0.00 386.00 246.80" xmlns="http://www.w3.org/2000/svg" xmlns:xlink="http://www.w3.org/1999/xlink">
<g id="graph0" class="graph" transform="scale(1 1) rotate(0) translate(4 242.8)">
<title>dependencies</title>
<polygon fill="white" stroke="transparent" points="-4,4 -4,-242.8 382,-242.8 382,4 -4,4"/>
<text text-anchor="middle" x="189" y="-8.2" font-family="sans-serif" font-size="14.00">dependencies</text>
<g id="clust1" class="cluster">
<title>cluster_TableModule</title>
<polygon fill="none" stroke="black" stroke-dasharray="1,5" points="8,-32.8 8,-230.8 370,-230.8 370,-32.8 8,-32.8"/>
</g>
<g id="clust4" class="cluster">
<title>cluster_TableModule_imports</title>
<polygon fill="none" stroke="black" points="154,-40.8 154,-92.8 362,-92.8 362,-40.8 154,-40.8"/>
</g>
<g id="clust5" class="cluster">
<title>cluster_TableModule_exports</title>
<polygon fill="none" stroke="black" points="104,-170.8 104,-222.8 236,-222.8 236,-170.8 104,-170.8"/>
</g>
<g id="clust2" class="cluster">
<title>cluster_TableModule_declarations</title>
<polygon fill="none" stroke="black" points="16,-40.8 16,-92.8 146,-92.8 146,-40.8 16,-40.8"/>
</g>
<!-- TableComponent -->
<g id="node1" class="node">
<title>TableComponent</title>
<polygon fill="#ffffb3" stroke="black" points="137.7,-84.8 24.3,-84.8 24.3,-48.8 137.7,-48.8 137.7,-84.8"/>
<text text-anchor="middle" x="81" y="-62.6" font-family="Times,serif" font-size="14.00">TableComponent</text>
</g>
<!-- TableModule -->
<g id="node2" class="node">
<title>TableModule</title>
<polygon fill="#8dd3c7" stroke="black" points="215.92,-149.8 212.92,-153.8 191.92,-153.8 188.92,-149.8 124.08,-149.8 124.08,-113.8 215.92,-113.8 215.92,-149.8"/>
<text text-anchor="middle" x="170" y="-127.6" font-family="Times,serif" font-size="14.00">TableModule</text>
</g>
<!-- TableComponent&#45;&gt;TableModule -->
<g id="edge1" class="edge">
<title>TableComponent&#45;&gt;TableModule</title>
<path fill="none" stroke="black" d="M130.95,-84.91C130.95,-84.91 130.95,-103.79 130.95,-103.79"/>
<polygon fill="black" stroke="black" points="127.45,-103.79 130.95,-113.79 134.45,-103.79 127.45,-103.79"/>
</g>
<!-- TableComponent  -->
<g id="node4" class="node">
<title>TableComponent </title>
<polygon fill="#fb8072" stroke="black" points="228.21,-214.8 111.79,-214.8 111.79,-178.8 228.21,-178.8 228.21,-214.8"/>
<text text-anchor="middle" x="170" y="-192.6" font-family="Times,serif" font-size="14.00">TableComponent </text>
</g>
<!-- TableModule&#45;&gt;TableComponent  -->
<g id="edge3" class="edge">
<title>TableModule&#45;&gt;TableComponent </title>
<path fill="none" stroke="black" stroke-dasharray="5,2" d="M170,-149.91C170,-149.91 170,-168.79 170,-168.79"/>
<polygon fill="black" stroke="black" points="166.5,-168.79 170,-178.79 173.5,-168.79 166.5,-168.79"/>
</g>
<!-- ConfigurationSummaryModule -->
<g id="node3" class="node">
<title>ConfigurationSummaryModule</title>
<polygon fill="#8dd3c7" stroke="black" points="354.03,-84.8 351.03,-88.8 330.03,-88.8 327.03,-84.8 161.97,-84.8 161.97,-48.8 354.03,-48.8 354.03,-84.8"/>
<text text-anchor="middle" x="258" y="-62.6" font-family="Times,serif" font-size="14.00">ConfigurationSummaryModule</text>
</g>
<!-- ConfigurationSummaryModule&#45;&gt;TableModule -->
<g id="edge2" class="edge">
<title>ConfigurationSummaryModule&#45;&gt;TableModule</title>
<path fill="none" stroke="black" d="M188.72,-84.91C188.72,-84.91 188.72,-103.79 188.72,-103.79"/>
<polygon fill="black" stroke="black" points="185.22,-103.79 188.72,-113.79 192.22,-103.79 185.22,-103.79"/>
</g>
</g>
</svg>
